<svg xmlns="http://www.w3.org/2000/svg" width="51.138" height="45.599" viewBox="0 0 51.138 45.599">
  <defs>
    <style>
      .cls-1 {
        fill: none;
        stroke: #c3142d;
      }
    </style>
  </defs>
  <g id="Group_395" data-name="Group 395" transform="translate(-706.851 -366.487)">
    <path id="Path_378" data-name="Path 378" class="cls-1" d="M43.425,37.271H38.87V7a.92.92,0,0,0-.96-.875H23.09A.921.921,0,0,0,22.13,7V37.271H17.576c-1.325,0-1.64.693-.7,1.547L28.8,49.694a2.567,2.567,0,0,0,3.394,0L44.128,38.818C45.065,37.964,44.75,37.271,43.425,37.271Z" transform="translate(691.026 360.981)"/>
    <path id="Path_379" data-name="Path 379" class="cls-1" d="M399.067.422A.672.672,0,0,0,398.443,0h-3.578a.673.673,0,0,0-.626.428l-6.528,16.76a.672.672,0,0,0,.626.916h3.59a.673.673,0,0,0,.631-.442l1.222-3.365h5.767l1.3,3.376a.672.672,0,0,0,.627.431h3.681a.672.672,0,0,0,.623-.922Zm-1.11,9.707H395.31l1.31-3.6Z" transform="translate(351.655 366.987)"/>
    <path id="Path_380" data-name="Path 380" class="cls-1" d="M416.533,260.921h-8.124l8.291-10.212a.67.67,0,0,0,.15-.423v-2.629a.672.672,0,0,0-.672-.672H403.912a.672.672,0,0,0-.672.672v2.835a.672.672,0,0,0,.672.672h6.4l-7.917,9.778a.671.671,0,0,0-.15.423v3.052a.672.672,0,0,0,.672.672h13.616a.672.672,0,0,0,.672-.672v-2.824A.672.672,0,0,0,416.533,260.921Z" transform="translate(338.675 146.497)"/>
  </g>
</svg>
