<svg xmlns="http://www.w3.org/2000/svg" width="34.07" height="34.07" viewBox="0 0 34.07 34.07">
  <defs>
    <style>
      .cls-1 {
        fill: #fff;
      }
    </style>
  </defs>
  <path id="Path_662" data-name="Path 662" class="cls-1" d="M4.259,14.905A10.543,10.543,0,0,1,14.905,4.259,10.543,10.543,0,0,1,25.552,14.905,10.543,10.543,0,0,1,14.905,25.552,10.543,10.543,0,0,1,4.259,14.905ZM30.45,33.431a2.108,2.108,0,1,0,2.981-2.981l-6.6-6.6a14.579,14.579,0,0,0,2.981-8.943A14.814,14.814,0,0,0,14.905,0,14.814,14.814,0,0,0,0,14.905,14.814,14.814,0,0,0,14.905,29.811a14.579,14.579,0,0,0,8.943-2.981Z"/>
</svg>
