<svg id="Capa_1" enable-background="new 0 0 511.998 511.998" height="512" viewBox="0 0 511.998 511.998" width="512" xmlns="http://www.w3.org/2000/svg"><g><g><path d="m345.03 102.096c-75.25 0-93.521 0-177.569 0v14.042l59.137 178.641 16.974 9h177.569v-125.571c0-42.035-34.076-76.112-76.111-76.112z" fill="#da4a54"/><path d="m281.966 177.914c0-37.935-27.435-69.441-63.54-75.818-14.321 0-30.734 0-50.965 0v14.042l59.137 178.641 16.974 9h38.393v-125.865z" fill="#df4854"/><path d="m352.956 46.779c-1.102-1.42-1.102-3.406 0-4.826l13.052-16.812c2.007-2.585.165-6.348-3.109-6.348h-63.087v51.147h63.088c3.273 0 5.115-3.763 3.108-6.348z" fill="#dd636e"/><path d="m299.813 18.792h30.858v51.147h-30.858z" fill="#da4a54"/><g><g><path d="m241.723 315.824v181.816c0 4.14 3.356 7.496 7.496 7.496h14.053c4.139 0 7.496-3.356 7.496-7.496v-181.816z" fill="#477b9e"/></g></g><path d="m257.245 497.64v-181.816h-15.522v181.816c0 4.14 3.356 7.496 7.496 7.496h14.053c.248 0 .493-.014.735-.037-3.795-.37-6.762-3.567-6.762-7.459z" fill="#3f6d8e"/><path d="m167.461 102.096c-42.035 0-76.112 34.076-76.112 76.112v125.571h152.223v-125.571c0-42.035-34.076-76.112-76.111-76.112z" fill="#dd636e"/><path d="m185.369 104.236c-5.745-1.386-11.738-2.139-17.909-2.139-42.035 0-76.112 34.076-76.112 76.112v125.571h35.817v-125.572c.001-35.864 24.814-65.916 58.204-73.972z" fill="#da4a54"/><path d="m211.755 207.281v-14.053c0-4.14-3.356-7.496-7.496-7.496h-73.597c-4.14 0-7.496 3.356-7.496 7.496v14.053c0 4.14 3.356 7.496 7.496 7.496h73.597c4.14 0 7.496-3.356 7.496-7.496z" fill="#da4a54"/><path d="m158.166 207.281v-14.053c0-4.14 3.356-7.496 7.496-7.496h-35c-4.14 0-7.496 3.356-7.496 7.496v14.053c0 4.14 3.356 7.496 7.496 7.496h35c-4.14 0-7.496-3.356-7.496-7.496z" fill="#df4854"/><path d="m432.117 294.779h-351.744c-4.14 0-7.496 3.356-7.496 7.496v14.053c0 4.14 3.356 7.496 7.496 7.496h351.744c4.14 0 7.496-3.356 7.496-7.496v-14.053c0-4.14-3.356-7.496-7.496-7.496z" fill="#dbedff"/><path d="m116.444 316.328v-14.053c0-4.14 3.356-7.496 7.496-7.496h-43.567c-4.14 0-7.496 3.356-7.496 7.496v14.053c0 4.14 3.356 7.496 7.496 7.496h43.567c-4.139 0-7.496-3.356-7.496-7.496z" fill="#b5dcff"/><circle cx="299.812" cy="200.254" fill="#ffe07d" r="17.847"/><path d="m299.86 200.254c0-6.557 3.594-12.303 8.9-15.405-2.637-1.542-5.689-2.442-8.948-2.442-9.816 0-17.847 8.031-17.847 17.847s8.031 17.847 17.847 17.847c3.259 0 6.311-.9 8.948-2.442-5.306-3.102-8.9-8.847-8.9-15.405z" fill="#ffd064"/></g><g><path d="m83.603 177.57v109.07h-3.477c-8.269 0-14.995 6.728-14.995 14.996v14.053c0 8.269 6.727 14.996 14.995 14.996h153.851v166.316c0 8.269 6.727 14.996 14.995 14.996h14.054c8.269 0 14.995-6.728 14.995-14.996v-166.315h153.85c8.269 0 14.996-6.728 14.996-14.996v-14.053c0-8.269-6.728-14.996-14.996-14.996h-3.476v-45.504c0-4.143-3.357-7.5-7.5-7.5s-7.5 3.357-7.5 7.5v45.504h-162.569v-109.071c0-27.042-13.175-52.772-35.876-68.612h77.116v66.445c-10.326 3.205-17.847 12.847-17.847 24.214 0 13.977 11.37 25.347 25.347 25.347s25.348-11.37 25.348-25.347c0-11.367-7.521-21.009-17.848-24.214v-66.445h37.718c37.832 0 68.611 30.779 68.611 68.612v28.566c0 4.143 3.357 7.5 7.5 7.5s7.5-3.357 7.5-7.5v-28.566c0-46.104-37.508-83.612-83.611-83.612h-37.718v-17.157h55.588c9.508 0 14.862-10.94 9.032-18.447l-11.355-14.626 11.354-14.625c5.834-7.51.474-18.448-9.031-18.448h-55.587v-3.155c0-4.143-3.357-7.5-7.5-7.5s-7.5 3.357-7.5 7.5v86.458h-124.853c-.013 0-.026.002-.039.002-46.085.021-83.572 37.52-83.572 83.61zm223.463-151.916h48.306l-8.588 11.062c-3.202 4.128-3.202 9.894 0 14.021 0 0 .001.001.001.002l8.587 11.061h-48.306zm-7.5 163.616c5.706 0 10.348 4.642 10.348 10.347s-4.642 10.347-10.348 10.347c-5.705 0-10.347-4.642-10.347-10.347s4.642-10.347 10.347-10.347zm-50.589 307.732v-166.316h14.044l.005 166.312zm182.89-195.361.004 14.045c-55.017.001 86.361-.001-351.739.004l-.005-14.049zm-264.653-192.682c37.832 0 68.611 30.779 68.611 68.611v109.07h-137.222v-109.07c0-37.832 30.779-68.611 68.611-68.611z"/><path d="m130.416 221.639h19.299c4.143 0 7.5-3.357 7.5-7.5s-3.357-7.5-7.5-7.5l-19.294.004-.005-14.049 73.593-.004.004 14.049h-19.298c-4.143 0-7.5 3.357-7.5 7.5s3.357 7.5 7.5 7.5h19.298c8.269 0 14.996-6.728 14.996-14.996v-14.053c0-8.269-6.728-14.996-14.996-14.996h-73.597c-8.269 0-14.995 6.728-14.995 14.996v14.053c-.001 8.268 6.726 14.996 14.995 14.996z"/></g></g></svg>