<?xml version="1.0" encoding="utf-8"?>
<!-- Generator: Adobe Illustrator 24.2.3, SVG Export Plug-In . SVG Version: 6.00 Build 0)  -->
<svg version="1.1" id="Layer_1" xmlns="http://www.w3.org/2000/svg" xmlns:xlink="http://www.w3.org/1999/xlink" x="0px" y="0px"
	 viewBox="0 0 94.6 96.9" style="enable-background:new 0 0 94.6 96.9;" xml:space="preserve">
<style type="text/css">
	.st0{fill:#C3142D;}
	.st1{fill:#FFFFFF;}
</style>
<path class="st0" d="M6.7,96.9h80l-6.6-10.7h14.5l-27-45.1l-7.6,12.7L49.7,37.3V26.2h27.6L65.7,13.1L77.3,0H43.7v37.3L34,52.9
	l-7-11.7L0,86.2h13.2L6.7,96.9z M67.5,52.8L84,80.2h-7.6L63.5,59.5L67.5,52.8z M38.7,81l8-9.4l8,9.4l7.9-11.7L76,90.9H17.5
	l13.4-21.5L38.7,81z M10.5,80.2L27,52.8l3.5,5.8L17,80.2H10.5z"/>
<rect x="49.9" y="7.6" class="st1" width="14.5" height="11.6"/>
<polygon class="st0" points="64.4,7.6 59.9,13.4 64.4,19.1 "/>
</svg>
