<svg id="Layer_1" data-name="Layer 1" xmlns="http://www.w3.org/2000/svg" viewBox="0 0 32.09 31.84"><defs><style>.cls-1{fill:none;stroke-miterlimit:10;stroke-width:1.48px;}.cls-1,.cls-2,.cls-3{stroke:#010101;}.cls-2,.cls-3{stroke-miterlimit:10;stroke-width:0.23px;}.cls-3{fill:#010101;}</style></defs><circle class="cls-1" cx="16.27" cy="15.97" r="12.91"/><polygon class="cls-2" points="12.63 5.69 19.46 14.49 12.94 16.75 12.63 5.69"/><polyline class="cls-2" points="16.31 19.86 5.25 20.16 14.05 13.34"/><polyline class="cls-2" points="15.97 12.59 27.04 12.28 18.23 19.11"/><polyline class="cls-2" points="19.41 15.81 19.72 26.87 12.9 18.07"/><g id="Layer_1-2" data-name="Layer 1"><polygon class="cls-2" points="23.32 0.87 20.82 14.2 16.31 15.89 23.32 0.87"/><polygon class="cls-3" points="23.14 0.79 14.54 11.27 16.14 15.81 23.14 0.79"/><polygon class="cls-2" points="0.87 8.69 14.2 11.18 15.9 15.7 0.87 8.69"/><polygon class="cls-3" points="0.79 8.86 11.39 17.53 15.82 15.87 0.79 8.86"/><polygon class="cls-2" points="8.97 30.96 11.46 17.64 15.97 15.94 8.97 30.96"/><polygon class="cls-3" points="9.14 31.04 17.75 20.57 16.15 16.02 9.14 31.04"/><polygon class="cls-2" points="31.22 23.15 17.89 20.66 16.2 16.15 31.22 23.15"/><polygon class="cls-3" points="31.3 22.98 20.82 14.37 16.27 15.97 31.3 22.98"/></g></svg>