<svg id="Capa_1" enable-background="new 0 0 512 512" height="512" viewBox="0 0 512 512" width="512" xmlns="http://www.w3.org/2000/svg"><g><path d="m435.74 17.5v477c0 5.52-4.48 10-10 10h-339.48c-5.52 0-10-4.48-10-10v-477c0-5.52 4.48-10 10-10h339.48c5.52 0 10 4.48 10 10z" fill="#c76d3d"/><g fill="#aa5e33"><path d="m425.74 7.5h-339.48c-5.523 0-10 4.477-10 10v88.2c11.04 8.64 24.93 13.8 40 13.8h111.917c1.648 13.908 13.472 24.696 27.823 24.696s26.175-10.789 27.823-24.696h73.852c21.029 0 38.082 17.036 38.103 38.065l.332 336.935c0 5.52-4.47 10-10 10h39.63c5.523 0 10-4.477 10-10v-477c0-5.523-4.477-10-10-10z"/><circle cx="256" cy="215.562" r="28.027"/></g><path d="m395.738 94.5h-279.476c-22.091 0-40-17.909-40-40v-37c0-5.523 4.477-10 10-10h339.476c5.523 0 10 4.477 10 10v37c0 22.091-17.909 40-40 40z" fill="#da875d"/><path d="m435.74 17.5v37c0 22.09-17.91 40-40 40h-36.45c22.09 0 40-17.91 40-40v-37c0-5.52-4.48-10-10-10h36.45c5.52 0 10 4.48 10 10z" fill="#c76d3d"/><g><circle cx="256" cy="187.535" fill="#64b9fc" r="28.027"/><path d="m284.03 187.53c0 15.48-12.55 28.03-28.03 28.03-4.68 0-9.09-1.15-12.97-3.19 8.95-4.67 15.05-14.04 15.05-24.84 0-10.79-6.1-20.16-15.05-24.83 3.88-2.04 8.29-3.19 12.97-3.19 15.48 0 28.03 12.55 28.03 28.02z" fill="#31a7fb"/><g><circle cx="256" cy="88.143" fill="#64b9fc" r="28.027"/><path d="m284.03 88.14c0 15.48-12.55 28.03-28.03 28.03-4.68 0-9.09-1.15-12.97-3.19 8.95-4.67 15.05-14.04 15.05-24.84s-6.1-20.16-15.05-24.84c3.88-2.03 8.29-3.18 12.97-3.18 15.48 0 28.03 12.54 28.03 28.02z" fill="#31a7fb"/></g></g><g><path d="m389.288 463.773h-128.832c-5.523 0-10-4.477-10-10v-121.31c0-5.523 4.477-10 10-10h128.832c5.523 0 10 4.477 10 10v121.31c0 5.523-4.477 10-10 10z" fill="#f2eff2"/><path d="m399.29 332.46v121.31c0 5.53-4.48 10-10 10h-30.52c5.52 0 10-4.47 10-10v-121.31c0-5.52-4.48-10-10-10h30.52c5.52 0 10 4.48 10 10z" fill="#e1dde1"/><g><path d="m443.238 17.5c0-9.649-7.851-17.5-17.5-17.5h-339.476c-9.649 0-17.5 7.851-17.5 17.5v225.856c0 4.142 3.357 7.5 7.5 7.5s7.5-3.358 7.5-7.5v-154.262c8.504 7.994 19.936 12.906 32.5 12.906h104.212v85.535c0 19.589 15.938 35.527 35.526 35.527s35.526-15.938 35.526-35.527c0-.446 0-85.535 0-85.535h29.529c4.143 0 7.5-3.358 7.5-7.5s-3.357-7.5-7.5-7.5h-29.558c-.606-19.062-16.291-34.384-35.497-34.384s-34.891 15.322-35.497 34.384h-104.241c-17.921 0-32.5-14.58-32.5-32.5v-37c0-1.378 1.121-2.5 2.5-2.5h339.477c1.379 0 2.5 1.122 2.5 2.5v37c0 17.92-14.579 32.5-32.5 32.5h-39.287c-4.143 0-7.5 3.358-7.5 7.5s3.357 7.5 7.5 7.5h39.287c12.564 0 23.996-4.912 32.5-12.906v405.406c0 1.378-1.121 2.5-2.5 2.5h-339.477c-1.379 0-2.5-1.122-2.5-2.5v-215.748c0-4.142-3.357-7.5-7.5-7.5s-7.5 3.358-7.5 7.5v215.748c0 9.649 7.851 17.5 17.5 17.5h339.477c9.649 0 17.5-7.851 17.5-17.5v-477zm-207.764 99.612c5.802 4.123 12.883 6.558 20.526 6.558s14.725-2.435 20.526-6.558v41.454c-5.802-4.123-12.883-6.558-20.526-6.558s-14.725 2.435-20.526 6.558zm20.526 90.95c-11.318 0-20.526-9.208-20.526-20.527s9.208-20.526 20.526-20.526 20.526 9.208 20.526 20.526-9.208 20.527-20.526 20.527zm0-140.446c11.318 0 20.526 9.208 20.526 20.527s-9.208 20.527-20.526 20.527-20.526-9.208-20.526-20.527 9.208-20.527 20.526-20.527z"/><path d="m293.138 392.622h4.046c4.143 0 7.5-3.358 7.5-7.5s-3.357-7.5-7.5-7.5h-4.046c-4.143 0-7.5 3.358-7.5 7.5s3.357 7.5 7.5 7.5z"/><path d="m356.606 351.067h-63.469c-4.143 0-7.5 3.358-7.5 7.5s3.357 7.5 7.5 7.5h63.469c4.143 0 7.5-3.358 7.5-7.5s-3.357-7.5-7.5-7.5z"/><path d="m356.606 377.622h-28.924c-4.143 0-7.5 3.358-7.5 7.5s3.357 7.5 7.5 7.5h28.924c4.143 0 7.5-3.358 7.5-7.5s-3.357-7.5-7.5-7.5z"/><path d="m293.138 435.168h63.469c4.143 0 7.5-3.358 7.5-7.5s-3.357-7.5-7.5-7.5h-63.469c-4.143 0-7.5 3.358-7.5 7.5s3.357 7.5 7.5 7.5z"/><path d="m250.456 415.251c-4.143 0-7.5 3.358-7.5 7.5v31.021c0 9.649 7.851 17.5 17.5 17.5h128.832c9.649 0 17.5-7.851 17.5-17.5v-121.31c0-9.649-7.851-17.5-17.5-17.5h-128.832c-9.649 0-17.5 7.851-17.5 17.5v54.894c0 4.142 3.357 7.5 7.5 7.5s7.5-3.358 7.5-7.5v-54.894c0-1.378 1.121-2.5 2.5-2.5h128.832c1.379 0 2.5 1.122 2.5 2.5v121.31c0 1.378-1.121 2.5-2.5 2.5h-128.832c-1.379 0-2.5-1.122-2.5-2.5v-31.021c0-4.142-3.357-7.5-7.5-7.5z"/></g></g></g></svg>