<?xml version="1.0" encoding="utf-8"?>
<!-- Generator: Adobe Illustrator 24.2.1, SVG Export Plug-In . SVG Version: 6.00 Build 0)  -->
<svg version="1.1" id="Layer_1" xmlns="http://www.w3.org/2000/svg" xmlns:xlink="http://www.w3.org/1999/xlink" x="0px" y="0px"
	 viewBox="0 0 220 220" style="enable-background:new 0 0 220 220;" xml:space="preserve">
<style type="text/css">
	.st0{fill:#C3142D;}
	.st1{fill:none;stroke:#C3142D;stroke-width:6;stroke-miterlimit:10;}
</style>
<g id="Group_398" transform="translate(-29.84 -46.351)">
	<path id="Path_382" class="st0" d="M221.9,115.2c-1.7-1.6-3.9-2.4-6.1-2.4h-2.5c-6.5,0-11.8,4.3-12.4,10l-2.7,26.8
		c-0.4,2.5-2.6,4.3-5.2,4.2h-23.2c-7.4,0-13.5,5.3-13.5,11.9v1.2c0,3.9,3.6,7.2,8.1,7.2h5l-4.9,14.1l0,0l-3.7,10.7
		c-0.4,1.2,0.3,2.6,1.6,2.9c0.1,0,0.1,0,0.2,0.1c0.3,0.1,0.5,0.1,0.8,0.1c1.1,0,2.2-0.6,2.6-1.7l3.2-9.1h37.2l3.2,9.1
		c0.4,1.1,1.5,1.7,2.6,1.7c0.3,0,0.5,0,0.8-0.1c1.3-0.3,2.1-1.5,1.9-2.8c0-0.1,0-0.1-0.1-0.2l-8.9-25.5c1.5-0.4,3-0.9,4.5-1.7
		c1.1-0.5,1.7-1.8,1.2-2.9c0-0.1-0.1-0.2-0.2-0.3c-0.8-1.2-2.4-1.5-3.7-0.9c-2.2,1.1-4.7,1.7-7.2,1.7h-35.9c-1.4,0.1-2.6-1-2.7-2.4
		v-1.2c0-3.9,3.6-7.1,8-7.1h23.2c5.5,0,10.1-3.7,10.6-8.5l2.7-26.9c0.5-3.4,3.5-5.8,7-5.6h2.5c0.8,0,1.6,0.3,2.1,0.8
		c0.5,0.5,0.8,1.2,0.8,2l-3.7,37.2c-0.1,0.9-0.3,1.8-0.6,2.7c-0.4,1.2,0.3,2.6,1.6,2.9c0.1,0,0.1,0,0.2,0.1c1.4,0.4,2.8-0.3,3.4-1.6
		c0.4-1.2,0.7-2.4,0.8-3.7l3.7-37.2C224.2,118.7,223.4,116.6,221.9,115.2z M175.2,174h25.3l4.3,12.4h-33.9L175.2,174z"/>
	<path id="Path_383" class="st0" d="M109.8,153.8H86.6c-2.5,0.1-4.8-1.7-5.2-4.2l-2.7-26.9c-0.6-5.7-5.9-10-12.4-10h-2.5
		c-2.3,0-4.5,0.8-6.1,2.4c-1.5,1.4-2.3,3.5-2.2,5.6l3.7,37.2c0.5,4.5,2.8,8.6,6.4,11.4c2.4,1.9,5.1,3.2,8,4l-8.9,25.5
		c-0.4,1.2,0.3,2.6,1.6,2.9c0.1,0,0.1,0,0.2,0.1c0.3,0.1,0.5,0.1,0.8,0.1c1.1,0,2.2-0.6,2.6-1.7l3.2-9.1h37.2l3.2,9.1
		c0.4,1.1,1.5,1.7,2.6,1.7c0.3,0,0.5,0,0.8-0.1c1.3-0.3,2.1-1.5,1.9-2.8c0-0.1,0-0.1-0.1-0.2l-3.7-10.7l0,0l-4.9-14.1h5
		c4.5,0,8.1-3.2,8.1-7.2v-1.2C123.2,159.1,117.2,153.8,109.8,153.8z M74.9,186.4l4.3-12.4h25.3l4.3,12.4H74.9z M117.8,166.8
		c-0.1,1.4-1.3,2.5-2.7,2.4H79.2c-0.6,0-1.1,0-1.7-0.1l0,0c-6.8-0.7-12.1-5.4-12.8-11.6L61,120.3c-0.1-0.7,0.2-1.5,0.8-2
		c0.6-0.5,1.3-0.8,2.1-0.8h2.5c3.4-0.2,6.4,2.2,7,5.6L76,150l0,0c0.5,4.9,5,8.5,10.6,8.5h23.2c4.4,0,8,3.2,8,7.1L117.8,166.8
		L117.8,166.8z"/>
	<path id="Path_384" class="st0" d="M153.1,192.7c-0.7-4.7-3.2-7.9-6.1-7.9h-1.1v-53.6h21.5c1.5-0.2,2.7-1.2,3.2-2.5
		c0.8-1.8,1.1-3.8,0.8-5.8c-0.8-6.2-4-10.6-7.7-10.6h-36.3c-1,0-1.7,1.3-1.7,2.9c0,1.6,0.8,2.9,1.7,2.9h36.3c2.1,0,3.9,2.5,4.3,5.9
		c0,0.3,0,0.6-0.1,0.9c-0.1,0.1-0.2,0.4-0.5,0.4h-55.3c-0.3,0-0.4-0.2-0.5-0.4c-0.1-0.3-0.2-0.6-0.1-0.9c0.4-3.4,2.2-5.9,4.3-5.9
		h3.3c1,0,1.7-1.3,1.7-2.9c0-1.6-0.8-2.9-1.7-2.9h-3.3c-3.7,0-7,4.5-7.7,10.6c-0.3,2,0,4,0.8,5.8c0.5,1.4,1.7,2.4,3.2,2.5h21.5v53.6
		h-1.1c-2.9,0-5.4,3.3-6.1,7.9l-0.4,2.7c-0.3,1.6-0.1,3.3,0.6,4.9c0.4,1.2,1.4,2,2.6,2.2h20.9c1.2-0.1,2.3-1,2.6-2.2
		c0.7-1.5,0.9-3.2,0.6-4.9L153.1,192.7z M137.2,131.2h5.2v53.6h-5.2V131.2z M129.6,196.6l0.4-2.3c0.3-2.1,1.4-3.5,2.7-3.5H147
		c1.3,0,2.4,1.4,2.7,3.5l0.4,2.3H129.6z"/>
</g>
<circle class="st1" cx="110" cy="110" r="104.6"/>
</svg>
