<?xml version="1.0" encoding="utf-8"?>
<!-- Generator: Adobe Illustrator 24.2.3, SVG Export Plug-In . SVG Version: 6.00 Build 0)  -->
<svg version="1.1" id="Layer_1" xmlns="http://www.w3.org/2000/svg" xmlns:xlink="http://www.w3.org/1999/xlink" x="0px" y="0px"
	 viewBox="0 0 90 75.5" style="enable-background:new 0 0 90 75.5;" xml:space="preserve">
<style type="text/css">
	.st0{fill:#C3142D;}
	.st1{fill:#FFFFFF;}
</style>
<path class="st0" d="M76.9,12.4c0.7-1,1.1-2.2,1.1-3.4c0-3.3-2.7-6-6-6c-2.4,0-4.5,1.4-5.4,3.5H53.6C52.6,2.7,49.1,0,45,0
	c-4.1,0-7.6,2.7-8.6,6.5H23.4C22.5,4.4,20.4,3,18,3c-3.3,0-6,2.7-6,6c0,1.3,0.4,2.5,1.1,3.4L0,47c0,9.4,8.1,17,18,17
	c9.9,0,18-7.6,18-17h0l0,0L22.9,12.4c0.2-0.3,0.4-0.6,0.5-0.9h12.9c0.6,2.1,1.9,3.8,3.6,5v56H22c-0.8,0-1.5,0.7-1.5,1.5
	s0.7,1.5,1.5,1.5h46c0.8,0,1.5-0.7,1.5-1.5s-0.7-1.5-1.5-1.5H50v-56c1.7-1.2,3-2.9,3.6-5h12.9c0.2,0.3,0.3,0.6,0.5,0.9L54,47
	c0,9.4,8.1,17,18,17c9.9,0,18-7.6,18-17L76.9,12.4z M3.2,47l12.3-32.5c0.8,0.3,1.6,0.5,2.5,0.5c0.9,0,1.7-0.2,2.5-0.5L32.8,47H3.2z
	 M57.2,47l12.3-32.5c0.8,0.3,1.6,0.5,2.5,0.5c0.9,0,1.7-0.2,2.5-0.5L86.8,47H57.2z"/>
<circle class="st1" cx="18" cy="8.7" r="1.5"/>
<circle class="st1" cx="72" cy="8.7" r="1.5"/>
</svg>
