<?xml version="1.0" encoding="utf-8"?>
<!-- Generator: Adobe Illustrator 24.2.3, SVG Export Plug-In . SVG Version: 6.00 Build 0)  -->
<svg version="1.1" id="Layer_1" xmlns="http://www.w3.org/2000/svg" xmlns:xlink="http://www.w3.org/1999/xlink" x="0px" y="0px"
	 viewBox="0 0 86.5 94.6" style="enable-background:new 0 0 86.5 94.6;" xml:space="preserve">
<style type="text/css">
	.st0{fill:#C3142D;}
	.st1{fill:#FFFFFF;}
</style>
<path class="st0" d="M3.4,48.6l8.9-1.5l1.1,3.9l23-4.6c1,1.9,2.7,3.3,4.8,3.9v12.9L23.5,90.7l3.4,2.2l14.3-22.3v24h4v-24l14.4,22.3
	l3.4-2.2L45.2,63.2V50.4c3.1-0.9,5.3-3.6,5.6-6.8l13.7-2.7l0.5,1.8l21.5-2.2L75.3,0L55.7,9.3l0.5,1.8L39,17.4l-1.6-5.6l4-1.1
	l-1.1-3.9l-11.9,3.3l1.1,3.9l4-1.1l1.7,5.9L7.3,29l1.1,3.9L0,36.3L3.4,48.6z"/>
<path class="st1" d="M43.2,46.1c-1.7,0-3.2-1.4-3.2-3.2s1.4-3.2,3.2-3.2s3.2,1.4,3.2,3.2S44.9,46.1,43.2,46.1L43.2,46.1z"/>
<polygon class="st1" points="72.6,6.8 80.6,35.8 68.2,37.1 61.4,12.3 "/>
<path class="st1" d="M56.6,15.7l5.8,20.7L49.8,39c-1.9-3.6-6.2-4.9-9.8-3.1c-2.2,1.1-3.7,3.3-3.9,5.8l-3.3,0.7l-4.6-16.2L56.6,15.7z
	"/>
<polygon class="st1" points="23,28.3 27.2,43.2 16.7,45.4 13,32 "/>
<polygon class="st1" points="9.1,37.8 10.6,42.6 6.7,43.1 5.5,39.2 "/>
</svg>
